PathFileType	4	(X/Y/Z)	C:/Users/beibeiliu/ov580/test_trc/User2\sequence.21_training_dense_left.trc
DataRate	CameraRate	NumFrames	NumMarkers	Units	OrigDataRate	OrigDataStartFrame	OrigNumFrames
120	120	22	19	mm	120	81	322
Frame#	Time	ThumbCMC			ThumbMCP			ThumbIP			ThumbTip			IndexMCP			IndexPIP			IndexTip			MiddleMCP			MiddlePIP			MiddleTip			RingMCP			RingPIP			RingTip			PinkyMCP			PinkyPIP			PinkyTip			BackHand1			BackHand2			BackHand3	
		X0	Y0	Z0	X1	Y1	Z1	X2	Y2	Z2	X3	Y3	Z3	X4	Y4	Z4	X5	Y5	Z5	X6	Y6	Z6	X7	Y7	Z7	X8	Y8	Z8	X9	Y9	Z9	X10	Y10	Z10	X11	Y11	Z11	X12	Y12	Z12	X13	Y13	Z13	X14	Y14	Z14	X15	Y15	Z15	X16	Y16	Z16	X17	Y17	Z17	X18	Y18	Z18	
80	0.666667	-163.788	2.75367	71.6606	-144.269	-6.84825	42.1815	-137.6	-10.2517	7.11598	-135.263	-17.4271	-16.9617	-182.467	34.961	-0.135704	-170.541	20.9003	-25.0378	-155.455	2.98451	-41.6363	-204.633	23.6995	-6.73626	-184.136	-2.97777	-20.8795	-175.125	-15.9875	14.1359	-216.787	10.2453	-6.58106	-198.332	-9.02981	-19.8153	-189.938	-17.5933	17.0158	-233.869	-9.39267	-1.49232	-209.052	-21.9566	-13.1789	-198.925	-32.9391	15.748	-235.423	7.50099	53.2553	-229.531	-2.87982	87.7386	-203.728	22.0496	78.2695	
81	0.675	-160.936	0.95493	71.1814	-148.052	-9.66265	37.5263	-139.094	-13.0042	4.23423	-139.167	-20.1587	-20.2409	-183.123	35.3515	2.57572	-174.957	22.8057	-23.3412	-163.545	0.767195	-43.5649	-203.325	26.7061	-6.83864	-184.514	0.233347	-22.0199	-180.93	-18.9566	14.2622	-221.152	10.1956	-6.97586	-204.44	-10.992	-21.2037	-193.484	-18.4196	17.102	-232.988	-4.52628	-1.00779	-212.022	-21.4805	-13.9053	-204.494	-33.949	17.164	-236.237	6.95329	55.6165	-234.773	-4.85057	85.7455	-204.131	20.809	76.6189	
82	0.683333	-164.724	-1.38613	68.3687	-153.7	-13.7028	38.0534	-145.826	-17.4002	0.137387	-149.505	-21.5932	-24.4148	-184.706	35.6192	0.248457	-176.002	22.7844	-24.8227	-170.38	0.463101	-44.4672	-209.196	26.8197	-4.93249	-190.55	-2.79318	-22.5155	-185.1	-19.0986	13.3547	-224.561	11.0337	-8.8787	-209.728	-12.5186	-21.2741	-197.088	-19.1163	13.7334	-239.739	-5.14541	3.10419	-219.185	-23.6843	-15.5192	-209.958	-33.2323	13.9499	-235.584	11.3385	53.8918	-234.476	-1.56892	87.1818	-206.996	19.9339	78.1822	
83	0.691667	-169.166	-6.55999	68.5419	-155.063	-17.3013	33.4597	-152.342	-21.5016	-0.74756	-155.042	-26.5467	-28.1612	-187.997	32.6407	-0.180357	-181.766	18.3057	-27.5533	-174.85	-1.88019	-46.941	-214.559	24.127	-10.5708	-200.082	-5.05839	-24.738	-191.75	-21.8447	9.03506	-229.152	10.1234	-8.20247	-214.672	-14.0852	-22.1443	-205.362	-23.636	14.1717	-246.218	-6.9898	1.29629	-227.239	-27.1666	-15.5095	-213.658	-31.6478	15.6774	-240.798	8.52813	53.341	-239.484	-4.46042	86.1617	-207.608	19.7302	75.2021	
84	0.7	-170.793	-6.60363	62.5292	-159.447	-20.1144	28.8611	-152.396	-26.0346	-5.19843	-159.492	-32.7644	-29.7753	-193.084	29.4114	-2.98401	-188.042	11.249	-32.4993	-180.059	-6.18697	-49.2434	-214.761	21.1231	-12.3465	-205.411	-8.16381	-27.7187	-193.017	-24.9432	8.62757	-234.665	5.91203	-11.2634	-216.425	-19.0188	-20.8434	-208.517	-24.734	14.253	-248.164	-6.72796	-1.4274	-231.869	-30.5555	-15.3264	-217.443	-34.199	14.0358	-245.291	9.08582	52.9178	-239.618	-5.07417	87.4141	-208.452	18.6456	73.2967	
85	0.708333	-172.434	-11.3987	62.5273	-165.078	-24.2662	28.0528	-160.671	-32.3204	-4.39656	-163.471	-38.4271	-31.2905	-197.513	22.1971	-7.81615	-192.896	7.9664	-30.9893	-186.368	-15.1144	-50.9428	-218.87	17.0265	-12.5333	-205.357	-15.0685	-27.0775	-196.804	-28.8269	6.77565	-239.301	0.619002	-13.1668	-220.022	-22.5971	-23.0264	-214.283	-30.5185	14.012	-255.298	-12.5891	-4.41798	-235.247	-33.5017	-16.0495	-222.493	-40.8589	17.2304	-246.736	4.39048	53.1615	-241.116	-3.30932	83.2923	-209.429	14.5897	73.2444	
86	0.716667	-175.628	-12.7497	63.1432	-164.024	-26.7663	28.4277	-156.714	-36.0965	-2.95122	-163.095	-42.5054	-32.898	-199.594	17.5958	-7.84789	-189.885	2.68282	-35.3148	-184.333	-23.1582	-52.7471	-222.993	9.84174	-12.9232	-207.778	-18.402	-28.5069	-198.52	-32.7449	12.2608	-237.032	-3.68526	-13.5705	-221.517	-30.5351	-21.6727	-213.946	-35.6342	10.3435	-252.959	-15.0787	-2.14815	-232.455	-35.9704	-15.7928	-224.003	-45.8196	12.8264	-247.057	-0.195822	52.6752	-242.493	-3.61699	82.0398	-211.131	15.0228	70.5793	
87	0.725	-173.923	-13.018	63.7743	-160.365	-27.5251	29.8226	-158.708	-36.3902	-1.96157	-156.034	-45.2001	-28.3186	-197.308	14.6969	-10.9441	-189.342	-1.19777	-34.0544	-179.818	-26.5127	-50.737	-217.007	7.46531	-16.7507	-201.149	-22.2465	-28.4896	-194.874	-34.9414	8.00232	-237.829	-7.73383	-14.8068	-218.619	-30.4615	-25.1334	-210.645	-36.6253	11.0356	-250.848	-18.698	-2.07739	-232.053	-41.3989	-18.4218	-222.011	-49.4546	9.92553	-248.016	-1.51367	50.6852	-244.405	-9.20593	84.5505	-213.491	12.9124	69.4262	
88	0.733333	-172.158	-11.6981	63.9781	-158.606	-26.3081	33.9	-149.558	-34.8559	-2.731	-154.721	-44.2868	-27.0338	-193.464	13.8367	-7.04586	-180.24	-4.0778	-34.3987	-174.81	-26.72	-47.5248	-214.652	3.90801	-18.3062	-197.229	-25.9361	-26.381	-189.425	-36.3316	8.3245	-233.451	-9.49747	-13.3351	-214.164	-29.9576	-25.7355	-207.306	-38.7216	9.01241	-245.931	-19.4773	-2.70215	-227.499	-38.6095	-19.8972	-217.66	-52.8622	6.99484	-243.3	-2.6344	51.3066	-244.266	-9.85153	81.9311	-211.018	12.7951	65.5549	
89	0.741667	-169.586	-12.7174	66.9126	-154.664	-25.8362	37.1149	-147.362	-34.6114	2.8183	-145.298	-43.4853	-19.4231	-184.837	14.9467	-5.03789	-172.623	-2.54488	-30.5724	-161.414	-25.43	-46.4157	-206.319	7.3661	-16.2394	-187.816	-21.8765	-25.2931	-185.935	-36.309	11.1684	-223.233	-4.5137	-14.0697	-207.675	-29.4445	-24.9673	-200.843	-34.9732	10.3878	-242.651	-18.2948	-1.46864	-220.493	-37.0365	-18.9355	-210.886	-46.5773	11.314	-240.851	-2.72249	50.0311	-242.341	-9.22467	82.4399	-207.144	14.0509	68.5066	
90	0.75	-162.283	-12.632	72.6429	-151.235	-25.6218	39.9506	-137.66	-32.9371	4.12398	-141.104	-38.9421	-20.169	-178.306	20.4512	-0.0118504	-166.39	6.35974	-24.6237	-156.352	-20.2585	-43.257	-198.522	14.4368	-8.04977	-183.638	-13.8346	-25.1718	-180.986	-32.0301	13.5529	-215.868	2.97241	-9.21822	-199.986	-22.5951	-23.0757	-198.908	-31.5461	15.8664	-235.209	-11.4055	-4.91879	-213.648	-28.4932	-18.523	-205.663	-41.3865	9.25753	-230.186	2.90764	52.33	-237.075	-7.07346	80.8481	-200.266	16.4559	74.2471	
91	0.758333	-157.808	-11.9964	75.0244	-143.189	-24.3118	42.7181	-133.093	-30.5648	9.64357	-135.243	-35.0153	-15.2234	-165.533	26.1716	2.47985	-158.806	12.65	-20.4221	-150.056	-9.81669	-39.2198	-189.26	24.1421	-2.27996	-175.186	-8.17546	-19.9963	-176.511	-26.4856	14.9258	-208.205	11.8938	-11.0416	-197.094	-13.507	-21.0787	-195.053	-25.5747	13.9621	-228.356	-1.45794	2.9747	-210.273	-22.0161	-16.4375	-204.185	-36.8985	13.6557	-225.292	10.3953	54.9905	-230.669	-0.132776	84.1276	-195.143	16.9299	75.9872	
92	0.766667	-155.547	-13.3369	78.0356	-144.856	-22.6971	45.6865	-132.113	-23.3589	9.06012	-135.857	-25.3862	-15.8785	-162.366	32.879	12.8552	-152.042	21.2708	-16.0687	-147.734	1.85588	-34.231	-186.799	31.9237	1.5048	-174.695	2.85061	-16.9654	-171.758	-18.873	18.2764	-205.189	20.8709	-4.53134	-191.785	-4.9619	-16.0685	-188.391	-17.3798	16.0426	-224.369	9.42576	3.38552	-205.179	-11.0854	-13.6159	-200.476	-25.6762	17.6284	-223.372	14.2938	59.0676	-225.512	0.678398	91.6227	-193.425	15.6363	83.7902	
93	0.775	-154.966	-12.328	79.0983	-142.273	-17.1293	42.7995	-133.094	-18.6732	12.2706	-129.045	-18.4365	-15.0699	-154.925	41.2443	20.7282	-146.676	31.2786	-8.05958	-140.679	11.1994	-32.716	-178.088	40.7231	5.06368	-169.199	13.685	-13.4569	-172.546	-11.6154	19.1347	-200.156	29.94	-1.70776	-188.528	7.19602	-13.0347	-185.159	-7.88855	22.1302	-216.927	20.0635	7.73227	-199.743	-1.71871	-9.53855	-198.886	-17.2158	21.0027	-216.011	22.3751	65.0534	-220.143	4.16406	92.3762	-187.689	19.9385	88.9601	
94	0.783333	-156.275	-9.81299	80.7059	-138.675	-15.8236	44.3346	-130.099	-12.1381	8.67124	-131.532	-11.6385	-14.0681	-151.678	45.5204	21.6287	-148.067	37.37	-5.5116	-141.393	20.5856	-27.6492	-174.833	47.3346	10.1316	-165.342	18.1453	-8.58973	-171.498	-6.84976	24.4952	-197.411	37.6785	4.13705	-184.951	15.61	-9.49092	-187.296	-3.60007	25.2841	-215.396	26.4093	10.3172	-203.544	4.86102	-9.20779	-197.146	-13.2868	21.5156	-213.426	23.8388	68.303	-221.206	7.36773	95.4092	-187.538	21.3724	90.7266	
95	0.791667	-155.988	-7.74949	80.1769	-141.039	-14.1503	45.6398	-134.412	-7.14041	10.0886	-130.126	-8.75766	-15.0619	-153.972	50.2008	22.6892	-149.22	41.4357	-5.20777	-144.497	23.7559	-30.0813	-179.71	50.696	12.4489	-168.127	25.887	-7.56819	-172.713	-2.38416	25.3711	-199.957	41.7993	6.49289	-188.661	21.0957	-8.27431	-187.24	1.28179	22.5688	-221.217	29.5008	13.584	-201.02	6.87116	-5.35834	-195.981	-6.09937	23.4423	-217.066	29.6254	68.8789	-219.972	6.73534	96.2722	-182.933	24.9321	94.5941	
96	0.8	-155.935	-5.99066	77.9567	-145.299	-9.31083	42.3836	-132.974	-6.03974	5.82271	-135.395	-3.65797	-17.7752	-156.06	52.2603	26.2276	-146.669	45.2042	-3.46106	-145.566	28.6096	-30.0361	-182.255	51.9291	17.2029	-173.004	25.1753	-6.17786	-173.474	-0.264091	23.6336	-198.763	46.3074	9.14281	-187.974	22.1375	-6.76567	-188.962	4.20262	24.0953	-219.053	33.6717	11.7552	-202.161	11.2602	-3.76389	-200.809	-5.75408	22.6174	-218.524	30.0486	70.018	-224.194	11.0489	96.6725	-183.398	22.3859	95.5635	
97	0.808333	-158.538	-5.80395	76.9337	-146.73	-10.0589	41.3037	-139.796	-6.76976	8.44481	-138.617	-1.3653	-21.5995	-157.712	54.6684	28.074	-149.78	46.1049	-5.81658	-147.221	30.2263	-31.0701	-186.477	53.5252	15.8541	-174.505	26.2489	-6.32011	-173.37	1.83565	24.2921	-202.394	47.5179	9.23353	-194.747	23.2421	-7.93845	-192.655	4.60866	23.8778	-222.291	34.6412	12.3514	-203.758	12.0574	-3.68676	-202.099	-5.16937	24.9551	-217.111	32.6622	72.0787	-225.158	7.3925	98.1699	-187.199	25.9443	91.9455	
98	0.816667	-156.727	-5.56779	76.3495	-145.672	-11.9203	39.8133	-139.76	-5.54859	3.31132	-144.492	-2.13742	-20.6191	-163.215	54.0332	24.99	-155.088	45.5443	-7.31207	-152.95	31.8905	-30.9651	-187.685	54.264	14.4091	-177.903	30.6707	-8.25812	-177.455	2.50354	25.271	-206.741	46.9497	8.00236	-199.446	24.5059	-8.92485	-194.242	5.58093	21.6045	-224.484	34.2923	12.6206	-207.735	12.4107	-3.3107	-205.887	-5.52296	25.9776	-220.082	32.781	70.2235	-226.981	8.47214	97.8306	-186.341	22.8525	94.0712	
99	0.825	-162.053	-2.67352	72.1828	-150.384	-8.88016	36.6464	-141.904	-8.38342	4.11316	-146.132	-5.65859	-22.2019	-166.408	53.2826	19.554	-160.46	46.5944	-6.78835	-158.182	29.5757	-33.5845	-191.874	53.8879	13.5253	-181.589	26.1856	-8.58754	-179.873	2.38079	25.1385	-210.909	45.707	5.06273	-199.6	23.304	-8.83187	-195.409	6.05067	22.9035	-227.69	34.0945	14.9184	-213.51	12.617	-5.13612	-208.569	-3.03521	22.3044	-224.784	32.716	71.3611	-226.518	11.8382	96.5308	-191.504	25.3697	94.0472	
100	0.833333	-164.29	-5.79124	74.0442	-151.309	-10.3019	34.957	-145.845	-10.22	2.90519	-148.19	-8.18965	-24.7368	-169.161	52.3053	18.2516	-165.714	44.042	-9.56529	-165.172	25.8951	-37.8076	-195.084	52.4107	6.05515	-187.216	25.1678	-11.9567	-181.679	2.10031	22.7825	-214.102	45.2792	6.45366	-203.541	22.4762	-10.833	-200.357	3.9185	23.3301	-235.094	31.7735	10.2637	-216.729	11.3904	-6.24508	-211.304	-4.91558	22.0383	-226.54	33.2792	68.8444	-226.472	10.2902	98.3582	-189.945	26.0871	89.428	
101	0.841667	-163.973	-1.03213	67.955	-157.849	-10.9639	35.1294	-152.821	-11.2332	0.662529	-154.886	-11.0614	-26.1737	-173.324	50.9449	13.0485	-169.395	41.2105	-13.4137	-171.631	20.6156	-41.7573	-199.043	49.8431	6.85897	-192.274	18.7128	-12.7538	-189.372	-0.601318	19.8731	-217.473	42.5308	2.04664	-208.955	14.3682	-11.628	-203.523	1.69641	20.8578	-238.523	29.7963	8.86028	-220.934	9.92079	-7.72553	-215.504	-7.30521	22.3391	-228.251	33.5413	67.9243	-230.077	14.0163	92.896	-191.605	31.7316	85.5611	
